<svg width="580" height="400" xmlns="http://www.w3.org/2000/svg">
 <!-- Created with Method Draw - http://github.com/duopixel/Method-Draw/ -->

 <g>
  <title>background</title>
  <rect fill="#fff" id="canvas_background" height="402" width="582" y="-1" x="-1"/>
  <g display="none" overflow="visible" y="0" x="0" height="100%" width="100%" id="canvasGrid">
   <rect fill="url(#gridpattern)" stroke-width="0" y="0" x="0" height="100%" width="100%"/>
  </g>
 </g>
 <g>
  <title>Layer 1</title>
  <g transform="rotate(-179.68075561523438 290.6669006347656,202.66668701171872) " stroke="null" id="svg_15">
   <path stroke="null" id="svg_14" d="m273.266189,72.451519a17.294402,17.36111 0 0 1 17.294402,-17.36111l155.64962,0a17.294402,17.36111 0 0 1 0,34.72222l-155.64962,0a17.294402,17.36111 0 0 1 -17.294402,-17.36111zm17.294402,104.166659l155.64962,0a17.294402,17.36111 0 0 0 0,-34.72222l-155.64962,0a17.294402,17.36111 0 0 0 0,34.72222zm0,86.805549l155.64962,0a17.294402,17.36111 0 0 0 0,-34.72222l-155.64962,0a17.294402,17.36111 0 0 0 0,34.72222zm0,86.805549l155.64962,0a17.294402,17.36111 0 0 0 0,-34.72222l-155.64962,0a17.294402,17.36111 0 0 0 0,34.72222zm-103.766414,-321.180531a17.294402,17.36111 0 0 0 -17.294402,17.36111l0,270.590257l-22.361662,-22.447915a17.294402,17.36111 0 0 0 -24.454285,24.548609l51.883207,52.083329a17.294402,17.36111 0 0 0 24.488874,0l51.883207,-52.083329a17.294402,17.36111 0 0 0 -24.454285,-24.548609l-22.396251,22.447915l0,-270.590257a17.294402,17.36111 0 0 0 -17.294402,-17.36111z"/>
  </g>
 </g>
</svg>