<?xml version="1.0" ?>
<!DOCTYPE svg  PUBLIC '-//W3C//DTD SVG 1.1//EN'  'http://www.w3.org/Graphics/SVG/1.1/DTD/svg11.dtd'>
<!-- Uploaded to: SVG Repo, www.svgrepo.com, Generator: SVG Repo Mixer Tools -->
<svg fill="#000000" width="800px" height="800px" viewBox="0 0 512 512" enable-background="new 0 0 512 512" id="Income_x5F_graph" version="1.1" xml:space="preserve" xmlns="http://www.w3.org/2000/svg" xmlns:xlink="http://www.w3.org/1999/xlink">
<g>
<path d="M141.919,422.5H81.912c-1.244,0-2.412,0.201-2.412,1.443V485.5h66v-61.557C145.5,422.701,143.162,422.5,141.919,422.5z"/>
<path d="M145.5,345.967c0-1.242-1.334-2.467-2.579-2.467h-60.75c-1.244,0-2.671,1.225-2.671,2.467v60.75   c0,1.242,1.427,1.783,2.671,1.783h60.75c1.244,0,2.579-0.541,2.579-1.783V345.967z"/>
<path d="M270.932,422.5h-60.004c-1.244,0-2.427,0.201-2.427,1.443V485.5h65v-61.557C273.5,422.701,272.176,422.5,270.932,422.5z"/>
<path d="M273.5,345.967c0-1.242-1.084-2.467-2.328-2.467h-60.75c-1.244,0-1.921,1.225-1.921,2.467v60.75   c0,1.242,0.677,1.783,1.921,1.783h60.75c1.244,0,2.328-0.541,2.328-1.783V345.967z"/>
<path d="M273.5,269.467c0-1.242-1.084-2.967-2.328-2.967h-60.75c-1.244,0-1.921,1.725-1.921,2.967v60.75   c0,1.242,0.677,2.283,1.921,2.283h60.75c1.244,0,2.328-1.041,2.328-2.283V269.467z"/>
<path d="M399.938,422.5h-60.006c-1.244,0-1.432,0.201-1.432,1.443V485.5h63v-61.557C401.5,422.701,401.18,422.5,399.938,422.5z"/>
<path d="M403.5,345.967c0-1.242-0.584-2.467-1.828-2.467h-60.75c-1.244,0-2.422,1.225-2.422,2.467v60.75   c0,1.242,1.178,1.783,2.422,1.783h60.75c1.244,0,1.828-0.541,1.828-1.783V345.967z"/>
<path d="M403.5,269.467c0-1.242-0.584-2.967-1.828-2.967h-60.75c-1.244,0-2.422,1.725-2.422,2.967v60.75   c0,1.242,1.178,2.283,2.422,2.283h60.75c1.244,0,1.828-1.041,1.828-2.283V269.467z"/>
<path d="M403.5,192.967c0-1.242-0.584-2.467-1.828-2.467h-60.75c-1.244,0-2.422,1.225-2.422,2.467v60.75   c0,1.242,1.178,1.783,2.422,1.783h60.75c1.244,0,1.828-0.541,1.828-1.783V192.967z"/>
<path d="M338.5,162.984v13.514c0,1.242,0.188,3.002,1.432,3.002h60.006c1.242,0,1.563-1.76,1.563-3.002v-60.006   c0-1.242-0.32-2.992-1.563-2.992h-9.512C386.309,140.5,363.5,160.908,338.5,162.984z"/>
<path d="M79.5,316.697v13.482c0,1.238,1.16,2.32,2.421,2.32h60.008c1.236,0,3.571-1.082,3.571-2.32v-59.984   c0-1.236-2.334-3.695-3.571-3.695h-9.518C128.296,293.5,106.5,314.617,79.5,316.697z"/>
<path d="M75.158,303.391c24.555,0,44.459-19.904,44.459-44.461c0-24.555-19.904-44.461-44.459-44.461   c-24.557,0-44.461,19.906-44.461,44.461C30.697,283.486,50.601,303.391,75.158,303.391z M52.83,256.564   c2.607-2.207,6.512-1.879,8.721,0.729l5.813,6.871l21.752-21.752c2.416-2.414,6.332-2.414,8.75,0.002   c2.416,2.416,2.416,6.334,0,8.75l-26.508,26.508c-1.162,1.162-2.738,1.811-4.375,1.811c-0.086,0-0.172-0.002-0.258-0.004   c-1.729-0.074-3.348-0.865-4.467-2.188l-10.156-12.006C49.896,262.676,50.22,258.771,52.83,256.564z"/>
<path d="M208.5,239.922v13.457c0,1.244,1.183,2.121,2.427,2.121h60.004c1.244,0,2.568-0.877,2.568-2.121v-60.006   c0-1.242-1.324-2.873-2.568-2.873h-9.482C257.352,217.5,235.5,237.85,208.5,239.922z"/>
<path d="M204.183,226.613c24.555,0,44.461-19.906,44.461-44.461s-19.906-44.459-44.461-44.459s-44.459,19.904-44.459,44.459   S179.628,226.613,204.183,226.613z M181.855,179.787c2.607-2.205,6.512-1.883,8.721,0.729l5.814,6.873l21.75-21.752   c2.418-2.416,6.332-2.416,8.75,0c2.416,2.416,2.416,6.334,0,8.75l-26.506,26.506c-1.162,1.164-2.738,1.814-4.375,1.814   c-0.086,0-0.172-0.004-0.256-0.006c-1.73-0.072-3.35-0.865-4.469-2.188l-10.156-12.008   C178.921,185.898,179.246,181.994,181.855,179.787z"/>
<path d="M496.545,33.598l-19.479-18.609c-2.047-1.951-5.244-1.949-7.275,0.002l-19.479,18.607c-1.564,1.496-2.057,3.175-1.25,5.183   c0.805,2.008,2.723,2.72,4.887,2.72H466.5v47.949c0,3.416,3.584,6.188,7,6.188s7-2.771,7-6.188V41.5h12.406   c2.164,0,4.082-0.712,4.889-2.722C498.6,36.771,498.109,35.092,496.545,33.598z"/>
<path d="M473.5,110.4c-3.416,0-7,2.771-7,6.188v51.436c0,3.416,3.584,6.188,7,6.188s7-2.771,7-6.188v-51.436   C480.5,113.172,476.916,110.4,473.5,110.4z"/>
<path d="M473.5,191.652c-3.416,0-7,2.77-7,6.188v274.596c0,7.594-5.436,13.064-13.029,13.064H20.011   c-3.418,0-6.188,3.084-6.188,6.5s2.77,6.5,6.188,6.5h433.459c14.416,0,27.029-11.648,27.029-26.064V197.84   C480.5,194.422,476.916,191.652,473.5,191.652z"/>
<path d="M333.172,149.678c24.555,0,44.461-19.906,44.461-44.461s-19.906-44.461-44.461-44.461s-44.459,19.906-44.459,44.461   S308.617,149.678,333.172,149.678z M311.359,93.5h10.414c1.863,0,3.516-0.647,4.09-2.419l3.219-9.627   c1.287-3.963,6.895-3.826,8.18,0.137l3.219,9.42c0.576,1.773,2.229,2.489,4.092,2.489h10.412c4.166,0,5.9,5.886,2.529,8.333   l-8.428,6.398c-1.506,1.094-2.135,3.174-1.559,4.945l3.217,9.974c1.287,3.963-3.248,7.292-6.619,4.843l-8.424-6.104   c-1.508-1.096-3.549-1.086-5.059,0.008l-8.424,6.126c-3.371,2.449-7.906-0.843-6.617-4.806l3.219-9.904   c0.574-1.773-0.055-3.712-1.563-4.808l-8.428-6.673C305.461,99.384,307.193,93.5,311.359,93.5z"/>
</g>
</svg>